<?xml version="1.0" standalone="no"?><!DOCTYPE svg PUBLIC "-//W3C//DTD SVG 1.1//EN" "http://www.w3.org/Graphics/SVG/1.1/DTD/svg11.dtd"><svg t="1565835197209" class="icon" viewBox="0 0 1024 1024" version="1.1" xmlns="http://www.w3.org/2000/svg" p-id="1429" xmlns:xlink="http://www.w3.org/1999/xlink" width="200" height="200"><defs><style type="text/css"></style></defs><path d="M953.6 234.666667L789.333333 70.4c-38.4-38.4-98.133333-38.4-136.533333 0L422.4 300.8c-17.066667 17.066667-17.066667 42.666667 0 59.733333s42.666667 17.066667 59.733333 0L714.666667 130.133333c4.266667-2.133333 10.666667-2.133333 14.933333 0l164.266667 164.266667c2.133333 2.133333 2.133333 6.4 2.133333 8.533333 0 2.133333 0 4.266667-2.133333 8.533334L661.333333 541.866667c-17.066667 17.066667-17.066667 42.666667 0 59.733333 8.533333 8.533333 19.2 12.8 29.866667 12.8 10.666667 0 21.333333-4.266667 29.866667-12.8l230.4-230.4c19.2-19.2 27.733333-42.666667 27.733333-68.266667 2.133333-25.6-8.533333-51.2-25.6-68.266666M42.666667 721.066667c0 25.6 10.666667 51.2 27.733333 68.266666l164.266667 164.266667c19.2 19.2 42.666667 27.733333 68.266666 27.733333 25.6 0 49.066667-8.533333 68.266667-27.733333l230.4-230.4c17.066667-17.066667 17.066667-42.666667 0-59.733333-17.066667-17.066667-42.666667-17.066667-59.733333 0L309.333333 893.866667c-4.266667 4.266667-10.666667 4.266667-14.933333 0l-164.266667-164.266667c-2.133333-2.133333-2.133333-6.4-2.133333-8.533333 0-2.133333 0-4.266667 2.133333-8.533334L362.666667 482.133333c17.066667-17.066667 17.066667-42.666667 0-59.733333s-42.666667-17.066667-59.733334 0L70.4 652.8c-17.066667 19.2-27.733333 42.666667-27.733333 68.266667M768 725.333333h85.333333c23.466667 0 42.666667-19.2 42.666667-42.666666s-19.2-42.666667-42.666667-42.666667h-85.333333c-23.466667 0-42.666667 19.2-42.666667 42.666667s19.2 42.666667 42.666667 42.666666M725.333333 853.333333v-85.333333c0-23.466667-19.2-42.666667-42.666666-42.666667s-42.666667 19.2-42.666667 42.666667v85.333333c0 23.466667 19.2 42.666667 42.666667 42.666667s42.666667-19.2 42.666666-42.666667M170.666667 298.666667c-23.466667 0-42.666667 19.2-42.666667 42.666666s19.2 42.666667 42.666667 42.666667h85.333333c23.466667 0 42.666667-19.2 42.666667-42.666667s-19.2-42.666667-42.666667-42.666666H170.666667zM298.666667 170.666667v85.333333c0 23.466667 19.2 42.666667 42.666666 42.666667s42.666667-19.2 42.666667-42.666667V170.666667c0-23.466667-19.2-42.666667-42.666667-42.666667s-42.666667 19.2-42.666666 42.666667" fill="#1296db" p-id="1430"></path></svg>