<?xml version="1.0" standalone="no"?><!DOCTYPE svg PUBLIC "-//W3C//DTD SVG 1.1//EN" "http://www.w3.org/Graphics/SVG/1.1/DTD/svg11.dtd"><svg t="1563180148159" class="icon" viewBox="0 0 1024 1024" version="1.1" xmlns="http://www.w3.org/2000/svg" p-id="11660" xmlns:xlink="http://www.w3.org/1999/xlink" width="200" height="200"><defs><style type="text/css"></style></defs><path d="M607.159283 354.733138c4.684765 8.336125 15.70774 14.984358 25.215057 15.018804l356.455478 1.997914c9.231742 0.068894 17.636761-4.753658 22.459313-12.607529 4.856999-7.85387 4.994786-17.808995 0.792276-26.007333l-162.554445-317.943957c-4.340297-8.542806-14.088741-14.777677-23.596057-15.087698-9.57621-0.413362-20.87476 2.927978-25.903993 11.057423l-49.844518 80.846638c-71.99381-40.68167-154.597235-64.553302-243.056615-64.553302C232.412554 27.385205 8.887274 250.944932 8.887274 525.692603c0 274.782117 223.52528 498.307397 498.307397 498.307397 274.74767 0 498.272951-223.52528 498.272951-498.307397 0-30.072056-3.100212-59.420729-8.232785-88.046019-2.755744 0.241128-5.373701 0.998957-8.163891 0.998957l-0.723383 0-167.342551-0.482255c7.784977 27.901907 12.228614 57.14724 12.228614 87.49487 0 179.777845-146.261109 326.073401-326.038954 326.073401C327.38238 851.766004 181.12127 705.436001 181.12127 525.692603c0-179.812292 146.261109-326.073401 326.073401-326.073401 55.287113 0 107.129546 14.295422 152.771554 38.752649l-54.425943 88.287146C600.511051 334.788441 602.543412 346.362566 607.159283 354.733138z" p-id="11661" fill="#1296db"></path></svg>