<?xml version="1.0" standalone="no"?><!DOCTYPE svg PUBLIC "-//W3C//DTD SVG 1.1//EN" "http://www.w3.org/Graphics/SVG/1.1/DTD/svg11.dtd"><svg t="1563240121457" class="icon" viewBox="0 0 1025 1024" version="1.1" xmlns="http://www.w3.org/2000/svg" p-id="3396" xmlns:xlink="http://www.w3.org/1999/xlink" width="200.1953125" height="200"><defs><style type="text/css"></style></defs><path d="M63.232 387.584c0-178.816 145.472-324.352 324.352-324.352s324.352 145.472 324.352 324.352-145.472 324.16-324.352 324.16S63.232 566.464 63.232 387.584M0 387.584c0 213.632 173.888 387.584 387.584 387.584 213.76 0 387.52-173.952 387.52-387.584C775.104 173.824 601.344 0 387.584 0 173.888 0 0 173.824 0 387.584" p-id="3397" fill="#1296db"></path><path d="M906.816 940.992l-255.296-255.36c-2.176-2.176-3.136-3.776-3.136-3.776 0-0.64 0.96-7.04 18.944-25.152 18.048-18.176 24.64-18.944 24.768-18.944 0.384 0 1.92 0.768 4.096 3.136l255.488 255.36c5.888 5.888 9.28 13.952 9.28 22.464 0 8.384-3.392 16.32-9.28 22.272-6.016 5.952-14.272 9.088-22.464 9.088C921.024 950.08 912.704 946.944 906.816 940.992M622.656 612.032c-12.48 12.288-27.776 29.376-34.24 49.472-7.872 24.64-1.408 49.088 18.368 68.928l255.424 255.232c17.856 17.984 41.728 27.84 67.072 27.84 25.472 0 49.216-9.792 67.264-27.84 17.728-17.92 27.584-41.664 27.584-67.008 0-25.408-9.792-49.28-27.584-67.328l-255.616-255.232c-17.792-17.856-36.032-21.632-48.32-21.632C664 574.592 641.088 593.344 622.656 612.032" p-id="3398" fill="#1296db"></path></svg>